# AST/ASF file generated using VICON BodyLanguage
# -----------------------------------------------
:version 1.10
:name VICON
:units
  mass 1.0
  length 0.45
  angle deg
:documentation
   .ast/.asf automatically generated from VICON data using
   VICON BodyBuilder and BodyLanguage model FoxedUp or BRILLIANT.MOD
:root
   order TX TY TZ RX RY RZ
   axis XYZ
   position 0 0 0  
   orientation 0 0 0 
:bonedata
  begin
     id 1 
     name lhipjoint
     direction 0.722297 -0.617336 0.311742 
     length 2.6635 
     axis 0 0 0  XYZ
  end
  begin
     id 2 
     name lfemur
     direction 0.34202 -0.939693 0  
     length 7.39349  
     axis 0 0 20  XYZ
    dof rx ry rz
    limits (-160.0 20.0)
           (-70.0 70.0)
           (-60.0 70.0)
  end
  begin
     id 3 
     name ltibia
     direction 0.34202 -0.939693 0   
     length 7.36294   
     axis 0 0 20   XYZ
    dof rx
    limits (-10.0 170.0)
  end
  begin
     id 4 
     name lfoot
     direction 0.104879 -0.288152 0.951824   
     length 2.16981   
     axis -90 7.62852e-016 20   XYZ
    dof rx rz
    limits (-45.0 90.0)
           (-70.0 20.0)
  end
  begin
     id 5 
     name ltoes
     direction 1.53586e-011 -4.21895e-011 1   
     length 1.08218   
     axis -90 7.62852e-016 20   XYZ
    dof rx
    limits (-90.0 20.0)
  end
  begin
     id 6 
     name rhipjoint
     direction -0.75102 -0.589393 0.297631   
     length 2.78977  
     axis 0 0 0  XYZ 
  end
  begin
     id 7 
     name rfemur
     direction -0.34202 -0.939693 0   
     length 7.46076   
     axis 0 0 -20   XYZ
    dof rx ry rz
    limits (-160.0 20.0)
           (-70.0 70.0)
           (-70.0 60.0)
  end
  begin
     id 8 
     name rtibia
     direction -0.34202 -0.939693 0   
     length 7.31726   
     axis 0 0 -20   XYZ
    dof rx
    limits (-10.0 170.0)
 end
 begin
     id 9 
     name rfoot
     direction -0.107991 -0.296704 0.948844   
     length 2.09388  
     axis -90 -7.62852e-016 -20   XYZ
    dof rx rz
    limits (-45.0 90.0)
           (-20.0 70.0)
  end
  begin
     id 10 
     name rtoes
     direction -1.53559e-011 -4.21911e-011 1   
     length 1.04433   
     axis -90 -7.62852e-016 -20   XYZ
    dof rx
    limits (-90.0 20.0)
  end
  begin
     id 11 
     name lowerback
     direction 0.0165164 0.98272 0.184358   
     length 1.71896   
     axis 0 0 0   XYZ
    dof rx ry rz
    limits (-20.0 45.0)
           (-30.0 30.0)
           (-30.0 30.0)
  end
  begin
     id 12 
     name upperback
     direction -0.00887249 0.992297 0.123566   
     length 1.71504   
     axis 0 0 0   XYZ
    dof rx ry rz
    limits (-20.0 45.0)
           (-30.0 30.0)
           (-30.0 30.0)
  end
  begin
     id 13 
     name thorax
     direction -0.0157026 0.998908 0.0440032   
     length 1.77022   
     axis 0 0 0   XYZ
    dof rx ry rz
    limits (-20.0 45.0)
           (-30.0 30.0)
           (-30.0 30.0)
  end
  begin
     id 14 
     name lowerneck
     direction -0.0238856 0.998137 0.0561411   
     length 1.89341   
     axis 0 0 0   XYZ
    dof rx ry rz
    limits (-20.0 45.0)
           (-30.0 30.0)
           (-30.0 30.0)
  end
  begin
     id 15 
     name upperneck
     direction 0.0276574 0.952253 -0.304056   
     length 1.86999   
     axis 0 0 0   XYZ
    dof rx ry rz
    limits (-20.0 45.0)
           (-30.0 30.0)
           (-30.0 30.0)
  end
  begin
     id 16
     name head
     direction 0.00800083 0.994258 -0.106712  
     length 1.91492  
     axis 0 0 0   XYZ
    dof rx ry rz
    limits (-20.0 45.0)
           (-30.0 30.0)
           (-30.0 30.0)
  end
  begin
     id 17 
     name lclavicle
     direction 0.97203 0.225407 0.06595  
     length 3.34889  
     axis 0 0 0   XYZ
    dof ry rz
    limits (-20.0 10.0)
           (0.0 20.0)
  end
  begin
     id 18 
     name lhumerus
     direction 1 -4.48973e-011 2.20267e-027   
     length 4.85645   
     axis 180 -30 -90   XYZ
    dof rx ry rz
    limits (-60.0 90.0)
           (-90.0 90.0)
           (-90.0 90.0)
  end
  begin
     id 19
     name lradius
     direction 1 -4.4897e-011 4.60472e-027   
     length 2.79874   
     axis 180 -30 -90   XYZ
    dof rx
    limits (-10.0 170.0)
  end
  begin
     id 20
     name lwrist
     direction 1 -4.48952e-011 1.14928e-026   
     length 1.39937   
     axis -6.29373e-015 90 90   XYZ
    dof ry
    limits (-180.0 0.0)
 end
  begin
     id 21 
     name lhand
     direction 1 -4.48967e-011 2.29886e-026   
     length 0.573398   
     axis -1.46689e-014 90 90   XYZ
    dof rx rz
    limits (-90.0 90.0)
           (-45.0 45.0)
  end
  begin
     id 22 
     name lfingers
     direction 1 -4.48955e-011 4.59726e-026   
     length 0.462289   
     axis -2.93383e-014 90 90   XYZ
    dof rx
    limits (0.0 90.0)
  end
  begin
     id 23
     name lthumb
     direction 0.707107 -6.34866e-011 0.707107   
     length 0.663757   
     axis -90 45 5.69224e-014   XYZ
    dof rx rz
    limits (-45.0 45.0)
           (-45.0 45.0)
  end
  begin
     id 24 
     name rclavicle
     direction -0.981571 0.157346 0.108443   
     length 3.35257  
     axis 0 0 0   XYZ 
    dof ry rz
    limits (-10.0 20.0)
           (-20.0 0.0)
  end
  begin
     id 25 
     name rhumerus
     direction -1 -4.48967e-011 8.58308e-029  
     length 4.67018   
     axis 180 30 90   XYZ
    dof rx ry rz
    limits (-90.0 60.0)
           (-90.0 90.0)
           (-90.0 90.0)
  end
  begin
     id 26 
     name rradius
     direction -1 -4.48958e-011 4.52548e-027   
     length 2.65534   
     axis 180 30 90   XYZ
    dof rx
    limits (-10.0 170.0)
  end
  begin
     id 27 
     name rwrist
     direction -1 -4.48977e-011 1.14952e-026   
     length 1.32767   
     axis -6.29373e-015 -90 -90   XYZ
    dof ry
    limits (-180.0 0.0)
  end
  begin
     id 28
     name rhand
     direction -1 -4.48924e-011 2.29804e-026   
     length 0.594069   
     axis -1.46689e-014 -90 -90   XYZ
    dof rx rz
    limits (-90.0 90.0)
           (-45.0 45.0)
  end
  begin
     id 29
     name rfingers
     direction -1 -4.48998e-011 4.59888e-026   
     length 0.478954   
     axis -2.93383e-014 -90 -90   XYZ
    dof rx
    limits (0.0 90.0)
  end
  begin
     id 30
     name rthumb
     direction -0.707107 -6.34933e-011 0.707107   
     length 0.687685   
     axis -90 -45 -5.69224e-014   XYZ
    dof rx rz
    limits (-45.0 45.0)
           (-45.0 45.0)
  end
:hierarchy
  begin
    root lhipjoint rhipjoint lowerback
    lhipjoint lfemur
    lfemur ltibia
    ltibia lfoot
    lfoot ltoes
    rhipjoint rfemur
    rfemur rtibia
    rtibia rfoot
    rfoot rtoes
    lowerback upperback
    upperback thorax
    thorax lowerneck lclavicle rclavicle
    lowerneck upperneck
    upperneck head
    lclavicle lhumerus
    lhumerus lradius
    lradius lwrist
    lwrist lhand lthumb
    lhand lfingers
    rclavicle rhumerus
    rhumerus rradius
    rradius rwrist
    rwrist rhand rthumb
    rhand rfingers
  end

#!OML:ASF E:\pregnant2\Project 1\Capture day 1\Session 1\pregnant2.ASF
:FULLY-SPECIFIED
:DEGREES
87
root 8.04852 17.0485 9.5294 -149.907 0.905989 181.008
lowerback -18.5538 -1.47122 4.78879
upperback -13.4834 0.427999 1.1914
thorax -4.28825 1.25145 -1.45984
lowerneck -12.9134 -2.44963 2.81841
upperneck 43.5951 6.51791 -8.13376
head 19.3919 4.37596 -2.41059
rclavicle 9.88954e-015 -2.78299e-015
rhumerus -102.338 24.0326 -126.595
rradius 108.113
rwrist -51.2027
rhand -34.5561 -68.1272
rfingers 7.12502
rthumb 172.284 -82.0336
lclavicle 9.88954e-015 -2.78299e-015
lhumerus -105.187 -31.8799 136.288
lradius 97.6218
lwrist 79.5808
lhand -25.4154 69.5056
lfingers 7.12502
lthumb 181.11 80.5175
rfemur -55.2312 11.2552 15.6836
rtibia 28.3873
rfoot -3.80145 -12.9133
rtoes 2.07173
lfemur -30.2928 -3.90879 -21.1578
ltibia 39.0864
lfoot -17.7327 3.44243
ltoes -30.8971
88
root 8.07634 17.0617 9.43744 -149.902 0.505714 181.138
lowerback -18.5273 -1.47408 4.95349
upperback -13.4589 0.404854 1.21639
thorax -4.28147 1.23092 -1.52887
lowerneck -12.8794 -2.45606 2.88536
upperneck 43.7245 6.63819 -8.17797
head 19.4886 4.45999 -2.41604
rclavicle 1.74931e-014 3.97569e-015
rhumerus -102.31 24.0405 -126.634
rradius 108.105
rwrist -51.2488
rhand -34.529 -67.9022
rfingers 7.12502
rthumb 172.31 -82.2577
lclavicle 1.74931e-014 3.97569e-015
lhumerus -105.241 -31.9739 136.415
lradius 97.5787
lwrist 79.5148
lhand -25.3081 69.4885
lfingers 7.12502
lthumb 181.214 80.5352
rfemur -54.8193 11.3515 15.9581
rtibia 28.4182
rfoot -4.24549 -13.2236
rtoes 2.29659
lfemur -31.1867 -3.20242 -20.9689
ltibia 41.0177
lfoot -16.8067 2.25674
ltoes -30.612
89
root 8.10347 17.0727 9.34823 -149.881 0.0862196 181.264
lowerback -18.5068 -1.47827 5.12568
upperback -13.4396 0.381735 1.24079
thorax -4.27818 1.21105 -1.60279
lowerneck -12.8511 -2.47451 2.94038
upperneck 43.8754 6.75491 -8.21671
head 19.6015 4.54397 -2.41687
rclavicle -6.41081e-015 -9.93923e-015
rhumerus -102.279 24.058 -126.682
rradius 108.097
rwrist -51.2796
rhand -34.4954 -67.7534
rfingers 7.12502
rthumb 172.342 -82.4053
lclavicle -6.41081e-015 -9.93923e-015
lhumerus -105.311 -32.079 136.554
lradius 97.5443
lwrist 79.4811
lhand -25.3286 69.4218
lfingers 7.12502
lthumb 181.194 80.6018
rfemur -54.4471 11.4199 16.2382
rtibia 28.4687
rfoot -4.70144 -13.5289
rtoes 2.48116
lfemur -32.1945 -2.53697 -20.7792
ltibia 43.0372
lfoot -15.6854 1.12995
ltoes -30.0065
90
root 8.12962 17.0817 9.26154 -149.852 -0.346788 181.384
lowerback -18.4859 -1.47968 5.30702
upperback -13.4243 0.36301 1.2589
thorax -4.27998 1.19309 -1.68805
lowerneck -12.8182 -2.50244 2.98251
upperneck 44.0465 6.87336 -8.24558
head 19.7273 4.63133 -2.40941
rclavicle 1.16538e-014 -7.95139e-015
rhumerus -102.239 24.0791 -126.733
rradius 108.086
rwrist -51.3068
rhand -34.4198 -67.8534
rfingers 7.12502
rthumb 172.415 -82.3026
lclavicle 1.16538e-014 -7.95139e-015
lhumerus -105.398 -32.1907 136.695
lradius 97.5279
lwrist 79.4912
lhand -25.539 69.2325
lfingers 7.12502
lthumb 180.991 80.79
rfemur -54.1015 11.4049 16.5699
rtibia 28.5421
rfoot -5.15575 -13.7516
rtoes 2.60279
lfemur -33.2863 -1.93459 -20.5916
ltibia 45.1028
lfoot -14.3674 0.109953
ltoes -29.2357
91
root 8.15434 17.0893 9.17625 -149.813 -0.77829 181.503
lowerback -18.4912 2.31316 4.22774
upperback -13.4711 -0.619993 0.555459
thorax -4.17679 -1.93756 -1.77412
lowerneck -12.7823 -2.53259 3.00052
upperneck 44.2393 7.00456 -8.25248
head 19.868 4.72567 -2.38317
rclavicle 1.25234e-014 -7.15625e-015
rhumerus -102.204 24.1284 -126.796
rradius 108.065
rwrist -51.3518
rhand -34.4371 -67.8887
rfingers 7.12502
rthumb 172.399 -82.2679
lclavicle 1.25234e-014 -7.15625e-015
lhumerus -105.473 -32.2976 136.824
lradius 97.512
lwrist 79.521
lhand -25.7911 68.9947
lfingers 7.12502
lthumb 180.747 81.0268
rfemur -53.7774 11.2999 16.9644
rtibia 28.6292
rfoot -5.59884 -13.8668
rtoes 2.67344
lfemur -34.4396 -1.39824 -20.4082
ltibia 47.1711
lfoot -12.8425 -0.769567
ltoes -28.1533
92
root 8.17749 17.0959 9.09174 -149.778 -1.19372 181.619
lowerback -18.4925 2.31607 4.41718
upperback -13.4527 -0.627128 0.578203
thorax -4.15798 -1.94602 -1.85837
lowerneck -12.7496 -2.57012 3.01508
upperneck 44.4546 7.14517 -8.26134
head 20.0284 4.82642 -2.35447
rclavicle 9.91439e-015 -4.45278e-014
rhumerus -102.175 24.1938 -126.863
rradius 108.042
rwrist -51.4167
rhand -34.5084 -67.9191
rfingers 7.12502
rthumb 172.33 -82.24
lclavicle 9.91439e-015 -4.45278e-014
lhumerus -105.523 -32.3988 136.919
lradius 97.4945
lwrist 79.5364
lhand -26.01 68.7759
lfingers 7.12502
lthumb 180.536 81.245
rfemur -53.4512 11.1171 17.414
rtibia 28.716
rfoot -6.01358 -13.8828
rtoes 2.67898
lfemur -35.6134 -0.914433 -20.2405
ltibia 49.1997
lfoot -11.1647 -1.47892
ltoes -26.8378
